<mxfile host="app.diagrams.net" agent="Mozilla/5.0 (Windows NT 10.0; Win64; x64) AppleWebKit/537.36 (KHTML, like Gecko) Chrome/131.0.0.0 Safari/537.36" version="26.0.4">
  <diagram name="Page-1" id="Ry_QxEvlpHuhw8htPoLW">
    <mxGraphModel dx="1114" dy="638" grid="1" gridSize="10" guides="1" tooltips="1" connect="1" arrows="1" fold="1" page="1" pageScale="1" pageWidth="850" pageHeight="1100" math="0" shadow="0">
      <root>
        <mxCell id="0" />
        <mxCell id="1" parent="0" />
        <mxCell id="pDESHIX1cG-cDZ0Ue_ff-1" value="IN&amp;nbsp; &amp;nbsp; &amp;nbsp; &amp;nbsp; &amp;nbsp; &amp;nbsp; &amp;nbsp; &amp;nbsp; &amp;nbsp; &amp;nbsp; &amp;nbsp; &amp;nbsp; &amp;nbsp; &amp;nbsp; &amp;nbsp; &amp;nbsp; &amp;nbsp; &amp;nbsp; &amp;nbsp; &amp;nbsp; &amp;nbsp; &amp;nbsp; &amp;nbsp;OUT&lt;div&gt;&lt;br&gt;&lt;/div&gt;&lt;div&gt;&lt;br&gt;&lt;/div&gt;&lt;div&gt;&lt;br&gt;&lt;/div&gt;&lt;div&gt;ON/OFF&amp;nbsp; &amp;nbsp; &amp;nbsp; &amp;nbsp; &amp;nbsp; &amp;nbsp; &amp;nbsp; &amp;nbsp; &amp;nbsp; &amp;nbsp; &amp;nbsp; &amp;nbsp; &amp;nbsp; &amp;nbsp; &amp;nbsp; &amp;nbsp; &amp;nbsp; &amp;nbsp; &amp;nbsp; &amp;nbsp;FB&lt;/div&gt;&lt;div&gt;&lt;br&gt;&lt;/div&gt;&lt;div&gt;&lt;br&gt;&lt;/div&gt;&lt;div&gt;GND&lt;/div&gt;" style="rounded=0;whiteSpace=wrap;html=1;" vertex="1" parent="1">
          <mxGeometry x="320" y="400" width="200" height="120" as="geometry" />
        </mxCell>
        <mxCell id="pDESHIX1cG-cDZ0Ue_ff-2" value="" style="endArrow=none;html=1;rounded=0;entryX=0;entryY=0.117;entryDx=0;entryDy=0;entryPerimeter=0;" edge="1" parent="1">
          <mxGeometry width="50" height="50" relative="1" as="geometry">
            <mxPoint x="60" y="409.5" as="sourcePoint" />
            <mxPoint x="320" y="409.53999999999996" as="targetPoint" />
          </mxGeometry>
        </mxCell>
        <mxCell id="pDESHIX1cG-cDZ0Ue_ff-3" value="" style="endArrow=oval;html=1;rounded=0;endFill=1;" edge="1" parent="1">
          <mxGeometry width="50" height="50" relative="1" as="geometry">
            <mxPoint x="130" y="460" as="sourcePoint" />
            <mxPoint x="130" y="410" as="targetPoint" />
          </mxGeometry>
        </mxCell>
        <mxCell id="pDESHIX1cG-cDZ0Ue_ff-4" value="" style="endArrow=oval;html=1;rounded=0;endFill=1;" edge="1" parent="1">
          <mxGeometry width="50" height="50" relative="1" as="geometry">
            <mxPoint x="210" y="460" as="sourcePoint" />
            <mxPoint x="210" y="410" as="targetPoint" />
          </mxGeometry>
        </mxCell>
        <mxCell id="pDESHIX1cG-cDZ0Ue_ff-5" value="" style="endArrow=none;html=1;rounded=0;" edge="1" parent="1">
          <mxGeometry width="50" height="50" relative="1" as="geometry">
            <mxPoint x="230" y="460" as="sourcePoint" />
            <mxPoint x="190" y="460" as="targetPoint" />
          </mxGeometry>
        </mxCell>
        <mxCell id="pDESHIX1cG-cDZ0Ue_ff-6" value="" style="endArrow=none;html=1;rounded=0;" edge="1" parent="1">
          <mxGeometry width="50" height="50" relative="1" as="geometry">
            <mxPoint x="190" y="470" as="sourcePoint" />
            <mxPoint x="230" y="470" as="targetPoint" />
          </mxGeometry>
        </mxCell>
        <mxCell id="pDESHIX1cG-cDZ0Ue_ff-7" value="" style="endArrow=none;html=1;rounded=0;" edge="1" parent="1" source="pDESHIX1cG-cDZ0Ue_ff-50">
          <mxGeometry width="50" height="50" relative="1" as="geometry">
            <mxPoint x="110" y="460" as="sourcePoint" />
            <mxPoint x="150" y="460" as="targetPoint" />
          </mxGeometry>
        </mxCell>
        <mxCell id="pDESHIX1cG-cDZ0Ue_ff-8" value="" style="curved=1;endArrow=none;html=1;rounded=0;endFill=0;" edge="1" parent="1">
          <mxGeometry width="50" height="50" relative="1" as="geometry">
            <mxPoint x="110" y="480" as="sourcePoint" />
            <mxPoint x="150" y="480" as="targetPoint" />
            <Array as="points">
              <mxPoint x="130" y="460" />
            </Array>
          </mxGeometry>
        </mxCell>
        <mxCell id="pDESHIX1cG-cDZ0Ue_ff-9" value="" style="endArrow=none;html=1;rounded=0;" edge="1" parent="1">
          <mxGeometry width="50" height="50" relative="1" as="geometry">
            <mxPoint x="130" y="470" as="sourcePoint" />
            <mxPoint x="130" y="540" as="targetPoint" />
          </mxGeometry>
        </mxCell>
        <mxCell id="pDESHIX1cG-cDZ0Ue_ff-10" value="" style="endArrow=none;html=1;rounded=0;" edge="1" parent="1">
          <mxGeometry width="50" height="50" relative="1" as="geometry">
            <mxPoint x="210" y="540" as="sourcePoint" />
            <mxPoint x="210" y="470" as="targetPoint" />
          </mxGeometry>
        </mxCell>
        <mxCell id="pDESHIX1cG-cDZ0Ue_ff-11" value="" style="endArrow=none;html=1;rounded=0;entryX=0.5;entryY=1;entryDx=0;entryDy=0;" edge="1" parent="1" target="pDESHIX1cG-cDZ0Ue_ff-1">
          <mxGeometry width="50" height="50" relative="1" as="geometry">
            <mxPoint x="420" y="570" as="sourcePoint" />
            <mxPoint x="450" y="470" as="targetPoint" />
          </mxGeometry>
        </mxCell>
        <mxCell id="pDESHIX1cG-cDZ0Ue_ff-12" value="" style="shape=step;perimeter=stepPerimeter;whiteSpace=wrap;html=1;fixedSize=1;size=10;" vertex="1" parent="1">
          <mxGeometry x="250" y="460" width="40" height="40" as="geometry" />
        </mxCell>
        <mxCell id="pDESHIX1cG-cDZ0Ue_ff-14" style="edgeStyle=orthogonalEdgeStyle;rounded=0;orthogonalLoop=1;jettySize=auto;html=1;entryX=0.005;entryY=0.658;entryDx=0;entryDy=0;entryPerimeter=0;" edge="1" parent="1" source="pDESHIX1cG-cDZ0Ue_ff-12" target="pDESHIX1cG-cDZ0Ue_ff-1">
          <mxGeometry relative="1" as="geometry" />
        </mxCell>
        <mxCell id="pDESHIX1cG-cDZ0Ue_ff-15" value="" style="endArrow=none;html=1;rounded=0;" edge="1" parent="1">
          <mxGeometry width="50" height="50" relative="1" as="geometry">
            <mxPoint x="970" y="410" as="sourcePoint" />
            <mxPoint x="700" y="410" as="targetPoint" />
          </mxGeometry>
        </mxCell>
        <mxCell id="pDESHIX1cG-cDZ0Ue_ff-16" value="VBAT" style="shape=step;perimeter=stepPerimeter;whiteSpace=wrap;html=1;fixedSize=1;" vertex="1" parent="1">
          <mxGeometry x="1070" y="380" width="80" height="60" as="geometry" />
        </mxCell>
        <mxCell id="pDESHIX1cG-cDZ0Ue_ff-18" value="" style="shape=mxgraph.arrows2.wedgeArrowDashed2;html=1;bendable=0;startWidth=22;stepSize=15;rounded=0;" edge="1" parent="1">
          <mxGeometry width="100" height="100" relative="1" as="geometry">
            <mxPoint x="130" y="540" as="sourcePoint" />
            <mxPoint x="130" y="570" as="targetPoint" />
          </mxGeometry>
        </mxCell>
        <mxCell id="pDESHIX1cG-cDZ0Ue_ff-19" value="" style="shape=mxgraph.arrows2.wedgeArrowDashed2;html=1;bendable=0;startWidth=22;stepSize=15;rounded=0;" edge="1" parent="1">
          <mxGeometry width="100" height="100" relative="1" as="geometry">
            <mxPoint x="210" y="540" as="sourcePoint" />
            <mxPoint x="210" y="570" as="targetPoint" />
          </mxGeometry>
        </mxCell>
        <mxCell id="pDESHIX1cG-cDZ0Ue_ff-20" value="" style="shape=mxgraph.arrows2.wedgeArrowDashed2;html=1;bendable=0;startWidth=22;stepSize=15;rounded=0;" edge="1" parent="1">
          <mxGeometry width="100" height="100" relative="1" as="geometry">
            <mxPoint x="419.5" y="570" as="sourcePoint" />
            <mxPoint x="419.5" y="600" as="targetPoint" />
          </mxGeometry>
        </mxCell>
        <mxCell id="pDESHIX1cG-cDZ0Ue_ff-21" value="" style="shape=mxgraph.arrows2.wedgeArrowDashed2;html=1;bendable=0;startWidth=22;stepSize=15;rounded=0;" edge="1" parent="1">
          <mxGeometry width="100" height="100" relative="1" as="geometry">
            <mxPoint x="894.5" y="650" as="sourcePoint" />
            <mxPoint x="894.5" y="680" as="targetPoint" />
          </mxGeometry>
        </mxCell>
        <mxCell id="pDESHIX1cG-cDZ0Ue_ff-23" value="" style="rounded=0;whiteSpace=wrap;html=1;direction=south;" vertex="1" parent="1">
          <mxGeometry x="880" y="450" width="30" height="60" as="geometry" />
        </mxCell>
        <mxCell id="pDESHIX1cG-cDZ0Ue_ff-24" value="" style="rounded=0;whiteSpace=wrap;html=1;direction=south;" vertex="1" parent="1">
          <mxGeometry x="880" y="550" width="30" height="60" as="geometry" />
        </mxCell>
        <mxCell id="pDESHIX1cG-cDZ0Ue_ff-25" value="" style="endArrow=oval;html=1;rounded=0;exitX=0;exitY=0.5;exitDx=0;exitDy=0;endFill=1;" edge="1" parent="1" source="pDESHIX1cG-cDZ0Ue_ff-23">
          <mxGeometry width="50" height="50" relative="1" as="geometry">
            <mxPoint x="680" y="520" as="sourcePoint" />
            <mxPoint x="895" y="410" as="targetPoint" />
          </mxGeometry>
        </mxCell>
        <mxCell id="pDESHIX1cG-cDZ0Ue_ff-26" value="" style="endArrow=none;html=1;rounded=0;entryX=1;entryY=0.5;entryDx=0;entryDy=0;exitX=0;exitY=0.5;exitDx=0;exitDy=0;" edge="1" parent="1" source="pDESHIX1cG-cDZ0Ue_ff-24" target="pDESHIX1cG-cDZ0Ue_ff-23">
          <mxGeometry width="50" height="50" relative="1" as="geometry">
            <mxPoint x="680" y="520" as="sourcePoint" />
            <mxPoint x="730" y="470" as="targetPoint" />
          </mxGeometry>
        </mxCell>
        <mxCell id="pDESHIX1cG-cDZ0Ue_ff-27" value="" style="endArrow=none;html=1;rounded=0;entryX=1;entryY=0.5;entryDx=0;entryDy=0;" edge="1" parent="1" target="pDESHIX1cG-cDZ0Ue_ff-24">
          <mxGeometry width="50" height="50" relative="1" as="geometry">
            <mxPoint x="895" y="650" as="sourcePoint" />
            <mxPoint x="730" y="470" as="targetPoint" />
          </mxGeometry>
        </mxCell>
        <mxCell id="pDESHIX1cG-cDZ0Ue_ff-29" value="DC 5V" style="shape=step;perimeter=stepPerimeter;whiteSpace=wrap;html=1;fixedSize=1;" vertex="1" parent="1">
          <mxGeometry x="20" y="390" width="80" height="40" as="geometry" />
        </mxCell>
        <mxCell id="pDESHIX1cG-cDZ0Ue_ff-40" value="" style="endArrow=oval;html=1;rounded=0;endFill=1;" edge="1" parent="1">
          <mxGeometry width="50" height="50" relative="1" as="geometry">
            <mxPoint x="740" y="460" as="sourcePoint" />
            <mxPoint x="740" y="410" as="targetPoint" />
          </mxGeometry>
        </mxCell>
        <mxCell id="pDESHIX1cG-cDZ0Ue_ff-41" value="" style="endArrow=oval;html=1;rounded=0;endFill=1;" edge="1" parent="1">
          <mxGeometry width="50" height="50" relative="1" as="geometry">
            <mxPoint x="813" y="460" as="sourcePoint" />
            <mxPoint x="813" y="410" as="targetPoint" />
          </mxGeometry>
        </mxCell>
        <mxCell id="pDESHIX1cG-cDZ0Ue_ff-42" value="" style="endArrow=none;html=1;rounded=0;" edge="1" parent="1">
          <mxGeometry width="50" height="50" relative="1" as="geometry">
            <mxPoint x="833" y="460" as="sourcePoint" />
            <mxPoint x="793" y="460" as="targetPoint" />
          </mxGeometry>
        </mxCell>
        <mxCell id="pDESHIX1cG-cDZ0Ue_ff-43" value="" style="endArrow=none;html=1;rounded=0;" edge="1" parent="1">
          <mxGeometry width="50" height="50" relative="1" as="geometry">
            <mxPoint x="793" y="470" as="sourcePoint" />
            <mxPoint x="833" y="470" as="targetPoint" />
          </mxGeometry>
        </mxCell>
        <mxCell id="pDESHIX1cG-cDZ0Ue_ff-44" value="" style="endArrow=none;html=1;rounded=0;" edge="1" parent="1" source="pDESHIX1cG-cDZ0Ue_ff-52">
          <mxGeometry width="50" height="50" relative="1" as="geometry">
            <mxPoint x="720" y="460" as="sourcePoint" />
            <mxPoint x="760" y="460" as="targetPoint" />
          </mxGeometry>
        </mxCell>
        <mxCell id="pDESHIX1cG-cDZ0Ue_ff-45" value="" style="curved=1;endArrow=none;html=1;rounded=0;endFill=0;" edge="1" parent="1">
          <mxGeometry width="50" height="50" relative="1" as="geometry">
            <mxPoint x="720" y="480" as="sourcePoint" />
            <mxPoint x="760" y="480" as="targetPoint" />
            <Array as="points">
              <mxPoint x="740" y="460" />
            </Array>
          </mxGeometry>
        </mxCell>
        <mxCell id="pDESHIX1cG-cDZ0Ue_ff-46" value="" style="endArrow=none;html=1;rounded=0;" edge="1" parent="1">
          <mxGeometry width="50" height="50" relative="1" as="geometry">
            <mxPoint x="740" y="470" as="sourcePoint" />
            <mxPoint x="740" y="540" as="targetPoint" />
          </mxGeometry>
        </mxCell>
        <mxCell id="pDESHIX1cG-cDZ0Ue_ff-47" value="" style="endArrow=none;html=1;rounded=0;" edge="1" parent="1">
          <mxGeometry width="50" height="50" relative="1" as="geometry">
            <mxPoint x="813" y="540" as="sourcePoint" />
            <mxPoint x="813" y="470" as="targetPoint" />
          </mxGeometry>
        </mxCell>
        <mxCell id="pDESHIX1cG-cDZ0Ue_ff-48" value="" style="shape=mxgraph.arrows2.wedgeArrowDashed2;html=1;bendable=0;startWidth=22;stepSize=15;rounded=0;" edge="1" parent="1">
          <mxGeometry width="100" height="100" relative="1" as="geometry">
            <mxPoint x="740" y="540" as="sourcePoint" />
            <mxPoint x="740" y="570" as="targetPoint" />
          </mxGeometry>
        </mxCell>
        <mxCell id="pDESHIX1cG-cDZ0Ue_ff-49" value="" style="shape=mxgraph.arrows2.wedgeArrowDashed2;html=1;bendable=0;startWidth=22;stepSize=15;rounded=0;" edge="1" parent="1">
          <mxGeometry width="100" height="100" relative="1" as="geometry">
            <mxPoint x="813" y="540" as="sourcePoint" />
            <mxPoint x="813" y="570" as="targetPoint" />
          </mxGeometry>
        </mxCell>
        <mxCell id="pDESHIX1cG-cDZ0Ue_ff-51" value="" style="endArrow=none;html=1;rounded=0;" edge="1" parent="1" target="pDESHIX1cG-cDZ0Ue_ff-50">
          <mxGeometry width="50" height="50" relative="1" as="geometry">
            <mxPoint x="110" y="460" as="sourcePoint" />
            <mxPoint x="150" y="460" as="targetPoint" />
          </mxGeometry>
        </mxCell>
        <mxCell id="pDESHIX1cG-cDZ0Ue_ff-50" value="" style="shape=umlDestroy;whiteSpace=wrap;html=1;strokeWidth=3;targetShapes=umlLifeline;direction=west;rotation=45;" vertex="1" parent="1">
          <mxGeometry x="100" y="455" width="10" height="10" as="geometry" />
        </mxCell>
        <mxCell id="pDESHIX1cG-cDZ0Ue_ff-53" value="" style="endArrow=none;html=1;rounded=0;" edge="1" parent="1" target="pDESHIX1cG-cDZ0Ue_ff-52">
          <mxGeometry width="50" height="50" relative="1" as="geometry">
            <mxPoint x="720" y="460" as="sourcePoint" />
            <mxPoint x="760" y="460" as="targetPoint" />
          </mxGeometry>
        </mxCell>
        <mxCell id="pDESHIX1cG-cDZ0Ue_ff-52" value="" style="shape=umlDestroy;whiteSpace=wrap;html=1;strokeWidth=3;targetShapes=umlLifeline;direction=west;rotation=45;" vertex="1" parent="1">
          <mxGeometry x="710" y="455" width="10" height="10" as="geometry" />
        </mxCell>
        <mxCell id="pDESHIX1cG-cDZ0Ue_ff-54" value="100uF" style="text;html=1;align=center;verticalAlign=middle;whiteSpace=wrap;rounded=0;" vertex="1" parent="1">
          <mxGeometry x="70" y="480" width="60" height="30" as="geometry" />
        </mxCell>
        <mxCell id="pDESHIX1cG-cDZ0Ue_ff-55" value="1uF" style="text;html=1;align=center;verticalAlign=middle;whiteSpace=wrap;rounded=0;" vertex="1" parent="1">
          <mxGeometry x="160" y="480" width="60" height="30" as="geometry" />
        </mxCell>
        <mxCell id="pDESHIX1cG-cDZ0Ue_ff-56" value="" style="endArrow=none;html=1;rounded=0;exitX=1;exitY=0.075;exitDx=0;exitDy=0;exitPerimeter=0;" edge="1" parent="1" source="pDESHIX1cG-cDZ0Ue_ff-1">
          <mxGeometry width="50" height="50" relative="1" as="geometry">
            <mxPoint x="530" y="410" as="sourcePoint" />
            <mxPoint x="600" y="410" as="targetPoint" />
          </mxGeometry>
        </mxCell>
        <mxCell id="pDESHIX1cG-cDZ0Ue_ff-58" value="" style="curved=1;endArrow=none;html=1;rounded=0;endFill=0;" edge="1" parent="1">
          <mxGeometry width="50" height="50" relative="1" as="geometry">
            <mxPoint x="600" y="410" as="sourcePoint" />
            <mxPoint x="620" y="410" as="targetPoint" />
            <Array as="points">
              <mxPoint x="610" y="380" />
            </Array>
          </mxGeometry>
        </mxCell>
        <mxCell id="pDESHIX1cG-cDZ0Ue_ff-59" value="" style="curved=1;endArrow=none;html=1;rounded=0;endFill=0;" edge="1" parent="1">
          <mxGeometry width="50" height="50" relative="1" as="geometry">
            <mxPoint x="620" y="410" as="sourcePoint" />
            <mxPoint x="640" y="410" as="targetPoint" />
            <Array as="points">
              <mxPoint x="630" y="380" />
            </Array>
          </mxGeometry>
        </mxCell>
        <mxCell id="pDESHIX1cG-cDZ0Ue_ff-60" value="" style="curved=1;endArrow=none;html=1;rounded=0;endFill=0;" edge="1" parent="1">
          <mxGeometry width="50" height="50" relative="1" as="geometry">
            <mxPoint x="640" y="410" as="sourcePoint" />
            <mxPoint x="660" y="410" as="targetPoint" />
            <Array as="points">
              <mxPoint x="650" y="380" />
            </Array>
          </mxGeometry>
        </mxCell>
        <mxCell id="pDESHIX1cG-cDZ0Ue_ff-61" value="" style="curved=1;endArrow=none;html=1;rounded=0;endFill=0;" edge="1" parent="1">
          <mxGeometry width="50" height="50" relative="1" as="geometry">
            <mxPoint x="660" y="410" as="sourcePoint" />
            <mxPoint x="680" y="410" as="targetPoint" />
            <Array as="points">
              <mxPoint x="670" y="380" />
            </Array>
          </mxGeometry>
        </mxCell>
        <mxCell id="pDESHIX1cG-cDZ0Ue_ff-62" value="" style="curved=1;endArrow=none;html=1;rounded=0;endFill=0;" edge="1" parent="1">
          <mxGeometry width="50" height="50" relative="1" as="geometry">
            <mxPoint x="680" y="410" as="sourcePoint" />
            <mxPoint x="700" y="410" as="targetPoint" />
            <Array as="points">
              <mxPoint x="690" y="380" />
            </Array>
          </mxGeometry>
        </mxCell>
        <mxCell id="pDESHIX1cG-cDZ0Ue_ff-63" value="" style="endArrow=none;html=1;rounded=0;" edge="1" parent="1">
          <mxGeometry width="50" height="50" relative="1" as="geometry">
            <mxPoint x="600" y="390" as="sourcePoint" />
            <mxPoint x="700" y="390" as="targetPoint" />
          </mxGeometry>
        </mxCell>
        <mxCell id="pDESHIX1cG-cDZ0Ue_ff-64" value="" style="shape=mxgraph.arrows2.wedgeArrowDashed2;html=1;bendable=0;startWidth=22;stepSize=15;rounded=0;" edge="1" parent="1">
          <mxGeometry width="100" height="100" relative="1" as="geometry">
            <mxPoint x="578" y="540" as="sourcePoint" />
            <mxPoint x="578" y="570" as="targetPoint" />
          </mxGeometry>
        </mxCell>
        <mxCell id="pDESHIX1cG-cDZ0Ue_ff-65" value="" style="shape=mxgraph.arrows2.wedgeArrow;html=1;bendable=0;startWidth=15;fillColor=strokeColor;defaultFillColor=invert;defaultGradientColor=invert;rounded=0;" edge="1" parent="1">
          <mxGeometry width="100" height="100" relative="1" as="geometry">
            <mxPoint x="578" y="480" as="sourcePoint" />
            <mxPoint x="578" y="460" as="targetPoint" />
          </mxGeometry>
        </mxCell>
        <mxCell id="pDESHIX1cG-cDZ0Ue_ff-66" value="" style="endArrow=none;html=1;rounded=0;" edge="1" parent="1">
          <mxGeometry width="50" height="50" relative="1" as="geometry">
            <mxPoint x="558" y="460" as="sourcePoint" />
            <mxPoint x="598" y="460" as="targetPoint" />
          </mxGeometry>
        </mxCell>
        <mxCell id="pDESHIX1cG-cDZ0Ue_ff-67" value="" style="endArrow=none;html=1;rounded=0;" edge="1" parent="1">
          <mxGeometry width="50" height="50" relative="1" as="geometry">
            <mxPoint x="578" y="540" as="sourcePoint" />
            <mxPoint x="578" y="480" as="targetPoint" />
          </mxGeometry>
        </mxCell>
        <mxCell id="pDESHIX1cG-cDZ0Ue_ff-68" value="" style="endArrow=oval;html=1;rounded=0;endFill=1;" edge="1" parent="1">
          <mxGeometry width="50" height="50" relative="1" as="geometry">
            <mxPoint x="578" y="460" as="sourcePoint" />
            <mxPoint x="578" y="410" as="targetPoint" />
          </mxGeometry>
        </mxCell>
        <mxCell id="pDESHIX1cG-cDZ0Ue_ff-69" value="" style="endArrow=oval;html=1;rounded=0;endFill=1;targetPerimeterSpacing=17;" edge="1" parent="1">
          <mxGeometry width="50" height="50" relative="1" as="geometry">
            <mxPoint x="520" y="490" as="sourcePoint" />
            <mxPoint x="895" y="530" as="targetPoint" />
            <Array as="points">
              <mxPoint x="540" y="490" />
              <mxPoint x="540" y="640" />
              <mxPoint x="855" y="640" />
              <mxPoint x="855" y="530" />
            </Array>
          </mxGeometry>
        </mxCell>
        <mxCell id="pDESHIX1cG-cDZ0Ue_ff-74" value="" style="endArrow=none;html=1;rounded=0;entryX=0;entryY=0.5;entryDx=0;entryDy=0;" edge="1" parent="1" target="pDESHIX1cG-cDZ0Ue_ff-16">
          <mxGeometry width="50" height="50" relative="1" as="geometry">
            <mxPoint x="1050" y="410" as="sourcePoint" />
            <mxPoint x="930" y="450" as="targetPoint" />
          </mxGeometry>
        </mxCell>
        <mxCell id="pDESHIX1cG-cDZ0Ue_ff-75" value="" style="endArrow=none;html=1;rounded=0;" edge="1" parent="1">
          <mxGeometry width="50" height="50" relative="1" as="geometry">
            <mxPoint x="960" y="390" as="sourcePoint" />
            <mxPoint x="1050" y="390" as="targetPoint" />
          </mxGeometry>
        </mxCell>
        <mxCell id="pDESHIX1cG-cDZ0Ue_ff-76" value="" style="curved=1;endArrow=none;html=1;rounded=0;endFill=0;" edge="1" parent="1">
          <mxGeometry width="50" height="50" relative="1" as="geometry">
            <mxPoint x="970" y="410" as="sourcePoint" />
            <mxPoint x="990" y="410" as="targetPoint" />
            <Array as="points">
              <mxPoint x="980" y="380" />
            </Array>
          </mxGeometry>
        </mxCell>
        <mxCell id="pDESHIX1cG-cDZ0Ue_ff-77" value="" style="curved=1;endArrow=none;html=1;rounded=0;endFill=0;" edge="1" parent="1">
          <mxGeometry width="50" height="50" relative="1" as="geometry">
            <mxPoint x="990" y="410" as="sourcePoint" />
            <mxPoint x="1010" y="410" as="targetPoint" />
            <Array as="points">
              <mxPoint x="1000" y="380" />
            </Array>
          </mxGeometry>
        </mxCell>
        <mxCell id="pDESHIX1cG-cDZ0Ue_ff-78" value="" style="curved=1;endArrow=none;html=1;rounded=0;endFill=0;" edge="1" parent="1">
          <mxGeometry width="50" height="50" relative="1" as="geometry">
            <mxPoint x="1010" y="410" as="sourcePoint" />
            <mxPoint x="1030" y="410" as="targetPoint" />
            <Array as="points">
              <mxPoint x="1020" y="380" />
            </Array>
          </mxGeometry>
        </mxCell>
        <mxCell id="pDESHIX1cG-cDZ0Ue_ff-79" value="" style="curved=1;endArrow=none;html=1;rounded=0;endFill=0;" edge="1" parent="1">
          <mxGeometry width="50" height="50" relative="1" as="geometry">
            <mxPoint x="1030" y="410" as="sourcePoint" />
            <mxPoint x="1050" y="410" as="targetPoint" />
            <Array as="points">
              <mxPoint x="1040" y="380" />
            </Array>
          </mxGeometry>
        </mxCell>
        <mxCell id="pDESHIX1cG-cDZ0Ue_ff-80" value="1R&lt;div&gt;2.2K&lt;/div&gt;" style="text;html=1;align=center;verticalAlign=middle;whiteSpace=wrap;rounded=0;" vertex="1" parent="1">
          <mxGeometry x="910" y="465" width="60" height="30" as="geometry" />
        </mxCell>
        <mxCell id="pDESHIX1cG-cDZ0Ue_ff-81" value="2R&lt;div&gt;1K&lt;/div&gt;" style="text;html=1;align=center;verticalAlign=middle;whiteSpace=wrap;rounded=0;" vertex="1" parent="1">
          <mxGeometry x="910" y="565" width="60" height="30" as="geometry" />
        </mxCell>
        <mxCell id="pDESHIX1cG-cDZ0Ue_ff-82" value="100uH" style="text;html=1;align=center;verticalAlign=middle;whiteSpace=wrap;rounded=0;" vertex="1" parent="1">
          <mxGeometry x="610" y="360" width="60" height="30" as="geometry" />
        </mxCell>
        <mxCell id="pDESHIX1cG-cDZ0Ue_ff-84" value="MBR360" style="text;html=1;align=center;verticalAlign=middle;whiteSpace=wrap;rounded=0;" vertex="1" parent="1">
          <mxGeometry x="580" y="480" width="60" height="30" as="geometry" />
        </mxCell>
        <mxCell id="pDESHIX1cG-cDZ0Ue_ff-85" value="330uF" style="text;html=1;align=center;verticalAlign=middle;whiteSpace=wrap;rounded=0;" vertex="1" parent="1">
          <mxGeometry x="730" y="480" width="60" height="30" as="geometry" />
        </mxCell>
        <mxCell id="pDESHIX1cG-cDZ0Ue_ff-86" value="100nF" style="text;html=1;align=center;verticalAlign=middle;whiteSpace=wrap;rounded=0;" vertex="1" parent="1">
          <mxGeometry x="810" y="470" width="60" height="30" as="geometry" />
        </mxCell>
        <mxCell id="pDESHIX1cG-cDZ0Ue_ff-87" value="PWR_CTRL" style="text;html=1;align=center;verticalAlign=middle;whiteSpace=wrap;rounded=0;" vertex="1" parent="1">
          <mxGeometry x="240" y="500" width="60" height="30" as="geometry" />
        </mxCell>
        <mxCell id="pDESHIX1cG-cDZ0Ue_ff-88" value="U1&amp;nbsp; &amp;nbsp; &amp;nbsp; LM2596-ADJ" style="text;html=1;align=center;verticalAlign=middle;whiteSpace=wrap;rounded=0;" vertex="1" parent="1">
          <mxGeometry x="370" y="370" width="110" height="30" as="geometry" />
        </mxCell>
        <mxCell id="pDESHIX1cG-cDZ0Ue_ff-89" value="FB 1&lt;div&gt;270R&lt;/div&gt;" style="text;html=1;align=center;verticalAlign=middle;whiteSpace=wrap;rounded=0;" vertex="1" parent="1">
          <mxGeometry x="980" y="350" width="60" height="30" as="geometry" />
        </mxCell>
      </root>
    </mxGraphModel>
  </diagram>
</mxfile>
